<svg width="590" height="103" viewBox="0 0 590 103" fill="none" xmlns="http://www.w3.org/2000/svg">
<path d="M35.1108 103C15.7502 103 0 87.2184 0 67.8203C0 48.4221 15.7502 32.6405 35.1108 32.6405C54.4705 32.6405 70.2207 48.4221 70.2207 67.8203C70.2207 87.2184 54.4705 103 35.1108 103ZM35.1108 53.71C27.3449 53.71 21.0277 60.0398 21.0277 67.8203C21.0277 75.6007 27.3449 81.9305 35.1108 81.9305C42.8758 81.9305 49.193 75.6007 49.193 67.8203C49.193 60.0398 42.8758 53.71 35.1108 53.71Z" fill="#26201D"/>
<path d="M70.2207 0H49.1931V101.502H70.2207V0Z" fill="#F53B41"/>
<path d="M49.1931 35.6167V100.024C61.5567 94.5739 70.2207 82.1994 70.2207 67.8203C70.2207 53.4411 61.5567 41.0666 49.1931 35.6167Z" fill="#8D2D2F"/>
<path d="M120 102.927C100.641 102.927 84.8904 87.1459 84.8904 67.7477C84.8904 48.3495 100.641 32.568 120 32.568C139.361 32.568 155.111 48.3495 155.111 67.7477C155.111 87.1459 139.361 102.927 120 102.927ZM120 53.6375C112.235 53.6375 105.918 59.9673 105.918 67.7477C105.918 75.5281 112.235 81.8579 120 81.8579C127.766 81.8579 134.083 75.5281 134.083 67.7477C134.083 59.9673 127.766 53.6375 120 53.6375Z" fill="#26201D"/>
<path d="M155.111 67.7477H134.083V101.429H155.111V67.7477Z" fill="#F53B41"/>
<path d="M155.111 67.7477H134.083V99.951C146.447 94.501 155.111 82.1267 155.111 67.7477Z" fill="#8D2D2F"/>
<path d="M205.78 53.6376C206.915 53.6376 208.04 53.7788 209.123 54.0565L214.339 33.6454C211.553 32.9308 208.673 32.568 205.78 32.568C186.813 32.568 171.382 48.0297 171.382 67.0342H192.409C192.409 59.6475 198.408 53.6376 205.78 53.6376Z" fill="#26201D"/>
<path d="M192.41 34.0233H171.382V101.429H192.41V34.0233Z" fill="#F53B41"/>
<path d="M192.41 67.0342V35.2786C180.065 40.5167 171.382 52.7785 171.382 67.0342" fill="#8D2D2F"/>
<path d="M247.637 0H226.61V101.502H247.637V0Z" fill="#26201D"/>
<path d="M295.147 34.0958H267.692L226.61 67.7988L267.691 101.502H295.147L254.065 67.7988L295.147 34.0958Z" fill="#F53B41"/>
<path d="M247.637 50.548L226.61 67.7987L247.637 85.05V50.548Z" fill="#8D2D2F"/>
<path d="M330.872 103C311.511 103 295.761 87.2184 295.761 67.8203C295.761 48.4221 311.511 32.6405 330.872 32.6405C350.231 32.6405 365.981 48.4221 365.981 67.8203C365.981 87.2184 350.231 103 330.872 103ZM330.872 53.71C323.106 53.71 316.788 60.0398 316.788 67.8203C316.788 75.6007 323.106 81.9305 330.872 81.9305C338.637 81.9305 344.954 75.6007 344.954 67.8203C344.954 60.0398 338.637 53.71 330.872 53.71Z" fill="#26201D"/>
<path d="M365.981 0H344.954V101.502H365.981V0Z" fill="#F53B41"/>
<path d="M344.954 35.6167V100.024C357.317 94.5739 365.981 82.1994 365.981 67.8203C365.981 53.4411 357.317 41.0666 344.954 35.6167Z" fill="#8D2D2F"/>
<path d="M415.76 102.927C396.401 102.927 380.651 87.1459 380.651 67.7477C380.651 48.3495 396.401 32.568 415.76 32.568C435.121 32.568 450.871 48.3495 450.871 67.7477C450.871 87.1459 435.121 102.927 415.76 102.927ZM415.76 53.6375C407.996 53.6375 401.679 59.9673 401.679 67.7477C401.679 75.5281 407.996 81.8579 415.76 81.8579C423.526 81.8579 429.843 75.5281 429.843 67.7477C429.843 59.9673 423.526 53.6375 415.76 53.6375Z" fill="#26201D"/>
<path d="M497.324 102.927C477.965 102.927 462.215 87.1459 462.215 67.7477C462.215 48.3495 477.965 32.568 497.324 32.568C516.684 32.568 532.434 48.3495 532.434 67.7477C532.434 87.1459 516.684 102.927 497.324 102.927ZM497.324 53.6375C489.56 53.6375 483.242 59.9673 483.242 67.7477C483.242 75.5281 489.56 81.8579 497.324 81.8579C505.09 81.8579 511.407 75.5281 511.407 67.7477C511.407 59.9673 505.09 53.6375 497.324 53.6375Z" fill="#26201D"/>
<path d="M581.441 53.6376C582.576 53.6376 583.702 53.7788 584.784 54.0565L590 33.6454C587.215 32.9308 584.334 32.568 581.441 32.568C562.474 32.568 547.043 48.0297 547.043 67.0342H568.071C568.071 59.6475 574.069 53.6376 581.441 53.6376Z" fill="#26201D"/>
<path d="M568.071 34.0233H547.043V101.429H568.071V34.0233Z" fill="#F53B41"/>
<path d="M568.071 67.0342V35.2786C555.726 40.5167 547.043 52.7785 547.043 67.0342" fill="#8D2D2F"/>
</svg>
