<svg width="300" height="300" viewBox="0 0 300 300" fill="none" xmlns="http://www.w3.org/2000/svg">
<rect width="300" height="300" fill="#FFF3ED"/>
<path d="M185.734 201.781V188.211H138.062L160.844 163.883C163.844 160.695 166.609 157.602 169.141 154.602C171.719 151.602 173.945 148.625 175.82 145.672C177.648 142.719 179.078 139.742 180.109 136.742C181.188 133.695 181.727 130.555 181.727 127.32C181.727 123.008 181.023 119.07 179.617 115.508C178.211 111.898 176.172 108.805 173.5 106.227C170.781 103.648 167.43 101.633 163.445 100.18C159.508 98.7266 155.031 98 150.016 98C144.672 98 139.82 98.8672 135.461 100.602C131.148 102.336 127.492 104.68 124.492 107.633C121.445 110.586 119.102 114.055 117.461 118.039C115.82 121.977 115 126.172 115 130.625H131.875C131.875 127.672 132.25 125.047 133 122.75C133.75 120.406 134.875 118.438 136.375 116.844C137.828 115.25 139.656 114.031 141.859 113.188C144.062 112.344 146.664 111.922 149.664 111.922C152.008 111.922 154.117 112.32 155.992 113.117C157.914 113.914 159.555 115.016 160.914 116.422C162.273 117.828 163.305 119.516 164.008 121.484C164.711 123.453 165.062 125.633 165.062 128.023C165.062 129.805 164.805 131.586 164.289 133.367C163.82 135.102 163.023 136.977 161.898 138.992C160.727 141.008 159.203 143.234 157.328 145.672C155.453 148.062 153.133 150.781 150.367 153.828L117.039 190.109V201.781H185.734Z" fill="black"/>
</svg>
