<svg width="2400" height="1802" viewBox="0 0 2400 1802" fill="none" xmlns="http://www.w3.org/2000/svg">
<rect width="2400" height="1802" fill="#FFF3ED"/>
<path d="M1286.24 1125.34C1286.24 1125.34 1179.98 1012.41 1252.28 880.872C1308.05 779.397 1442.96 797.478 1512.19 840.4C1541.68 858.68 1605.03 825.154 1685.37 723.349C1778.64 605.161 2139.73 677.271 2077.37 903.085C2047.19 1012.36 2169.21 1016.33 2107.04 1125.57L1286.24 1125.34Z" fill="#FFE9DD"/>
<path d="M1781.53 852.005H2034.05V842.275C2034.05 772.678 1977.41 716.06 1907.79 716.06C1838.17 716.06 1781.53 772.678 1781.53 842.275V852.005ZM2042.58 1124.43H1773C1746.02 1124.43 1724.14 1102.57 1724.14 1075.59V842.275C1724.14 817.503 1729 793.459 1738.58 770.804C1747.83 748.94 1761.07 729.309 1777.93 712.46C1794.79 695.607 1814.42 682.374 1836.3 673.126C1855.82 664.873 1851.15 659.867 1872.32 658.711C1875.72 658.529 1904.36 658.689 1907.79 658.689C1932.57 658.689 1956.63 663.547 1979.29 673.126C2001.16 682.374 2020.8 695.607 2037.65 712.46C2054.51 729.309 2067.75 748.94 2077 770.804C2086.58 793.459 2091.44 817.503 2091.44 842.275V1075.59C2091.44 1102.57 2069.57 1124.43 2042.58 1124.43Z" fill="#C4927A"/>
<path d="M1749.01 852.005H2001.53V842.275C2001.53 772.678 1944.89 716.06 1875.27 716.06C1805.65 716.06 1749.01 772.678 1749.01 842.275V852.005ZM2010.06 1124.43H1740.48C1713.49 1124.43 1691.62 1102.57 1691.62 1075.59V842.275C1691.62 817.503 1696.48 793.459 1706.06 770.804C1715.32 748.94 1728.55 729.309 1745.41 712.46C1762.27 695.607 1781.9 682.374 1803.78 673.126C1826.44 663.547 1850.49 658.689 1875.27 658.689C1900.05 658.689 1924.1 663.547 1946.76 673.126C1968.64 682.374 1988.27 695.607 2005.13 712.46C2021.99 729.309 2035.23 748.94 2044.48 770.804C2054.06 793.459 2058.92 817.503 2058.92 842.275V1075.59C2058.92 1102.57 2037.05 1124.43 2010.06 1124.43Z" fill="#FFC1A2"/>
<path d="M1897.99 943.44C1897.99 937.773 1895.91 932.591 1892.48 928.613C1889.33 923.938 1882.81 920.725 1875.27 920.725C1867.73 920.725 1861.21 923.938 1858.06 928.613C1854.63 932.591 1852.55 937.773 1852.55 943.44C1852.55 953.624 1859.25 962.242 1868.48 965.125V999.529C1868.48 1002.3 1871.52 1004.55 1875.27 1004.55C1879.02 1004.55 1882.06 1002.3 1882.06 999.529V965.125C1891.29 962.242 1897.99 953.624 1897.99 943.44Z" fill="#F53B41"/>
<path d="M1573.24 914.378C1572.81 917.295 1569.48 920.672 1565.92 923.204C1562.1 925.929 1560.56 928.726 1559.21 930.125C1558.7 930.698 1558.39 931.013 1558.39 931.013L1554.31 926.266C1554.31 926.266 1554.38 926.222 1554.5 926.087C1555.41 925.091 1557.73 922.637 1559.27 919.809C1562.66 913.613 1567.39 912.699 1567.39 912.699C1567.39 912.699 1571.91 913.367 1573.24 914.378Z" fill="#FFB27D"/>
<path d="M1362.27 973.951L1365.03 976.19C1365.03 976.19 1372.58 973.485 1374.28 982.453C1374.28 982.453 1374.73 986.277 1372.31 986.283C1369.89 986.289 1370.89 985.864 1367.46 985.965C1364.03 986.066 1361.19 984.258 1360.68 981.476L1359.04 979.12L1362.27 973.951Z" fill="#EA8E50"/>
<path d="M1361.95 978.761C1364.16 976.462 1363.98 974.764 1363.98 974.764C1363.98 974.764 1338.48 953.895 1335.89 952.194C1334.13 951.035 1316.37 934.022 1306.58 924.247C1301.87 919.547 1296.83 921.17 1290.66 922.94L1285.58 924.395C1279.44 926.156 1277.85 934.733 1282.88 938.904C1297.06 950.644 1320.65 963.849 1325.06 966.624C1336.02 973.513 1357.46 981.7 1357.46 981.7C1357.46 981.7 1360.06 980.733 1361.95 978.761Z" fill="#C13539"/>
<path d="M1391.05 1106.97C1391.05 1106.97 1397.24 1111.61 1406.72 1109.16C1406.72 1109.16 1414.37 1107.42 1416.04 1111.23C1416.04 1111.23 1404.32 1117.18 1401.35 1118.81C1399.12 1120.04 1396.78 1121.98 1395.13 1123.47C1393.83 1124.66 1391.79 1124.5 1390.68 1123.13C1390.17 1122.5 1389.58 1121.74 1388.93 1120.86C1387.12 1118.42 1382.91 1110.5 1382.91 1110.5L1391.05 1106.97Z" fill="#233862"/>
<path d="M1394.69 1104.62C1394.69 1104.62 1390.92 1113.3 1382.22 1111.71C1382.22 1111.71 1364.47 1097.05 1352.3 1081.83C1348.34 1076.89 1344.98 1071.89 1343 1067.31C1334.92 1048.62 1313.14 1020.75 1299.28 1006.63L1333.94 994.095C1333.94 994.095 1345.05 1016.42 1359.82 1043.84C1370.46 1063.6 1383.01 1086.01 1394.69 1104.62Z" fill="#26201D"/>
<path d="M1359.82 1043.84L1352.3 1081.83C1348.34 1076.89 1344.98 1071.89 1343 1067.31C1334.92 1048.62 1313.14 1020.75 1299.28 1006.63L1333.94 994.095C1333.94 994.095 1345.05 1016.42 1359.82 1043.84Z" fill="#0C0A09"/>
<path d="M1331.48 1112.01C1331.48 1112.01 1331.11 1118.94 1339.51 1119.87C1339.51 1119.87 1344.31 1119.89 1344.33 1124.3L1319.9 1124.38C1319.9 1124.38 1319.19 1122.6 1319.02 1118.79C1318.89 1115.86 1321.86 1108.21 1321.86 1108.21L1331.48 1112.01Z" fill="#233862"/>
<path d="M1322.57 994.095C1322.57 994.095 1338.02 1011.06 1347.82 1041.61C1353.15 1058.24 1338.04 1100.04 1335.1 1114.56C1335.1 1114.56 1324.96 1115.42 1318.03 1112.75C1318.03 1112.75 1317.51 1082.75 1321.56 1059.63C1323.83 1046.69 1301.23 1031.95 1291.35 1008.58C1284.64 992.671 1292.81 992.939 1302.85 992.558L1322.57 994.095Z" fill="#26201D"/>
<path d="M1304.75 918.423C1296.16 923.274 1278.57 918.801 1278.57 918.801C1278.57 918.801 1285.71 910.639 1282.47 897.491L1289.21 900.915L1296.46 904.594C1296.46 904.594 1296.93 906.916 1297.25 911.086C1297.34 912.16 1297.41 913.361 1297.46 914.671C1301.87 916.007 1304.75 918.423 1304.75 918.423Z" fill="#FFB07B"/>
<path d="M1336.25 993.219C1336.25 994.728 1334.51 995.453 1334.14 995.525C1330.68 996.158 1321 999.92 1312.29 1000.78C1304.95 1001.55 1298.13 1000.82 1290.65 999.318C1289.66 999.119 1287.33 998.493 1287.16 997.544C1286.96 996.508 1258.29 939.124 1280.58 914.476C1281.1 913.896 1285.5 914.939 1289.52 915.893C1293.24 916.772 1296.64 916.281 1299.69 915.062L1303.46 917.046C1308.09 919.626 1316.86 928.796 1317.89 935.99C1318.41 939.651 1320.5 942.36 1321.11 945.576C1321.33 946.766 1321.56 947.932 1321.79 949.063C1322.25 951.287 1322.72 953.403 1323.21 955.413C1324.52 960.856 1325.9 965.54 1327.26 969.585C1328.7 973.882 1330.12 977.457 1331.39 980.446C1333.03 984.324 1334.42 987.222 1335.29 989.439C1335.9 991.002 1336.25 992.227 1336.25 993.219Z" fill="#F53B41"/>
<path d="M1335.29 989.439C1294.82 970.379 1280.81 933.782 1280.81 933.782C1280.81 933.782 1313.68 945.906 1321.79 949.063C1322.25 951.287 1322.72 953.403 1323.21 955.413C1324.52 960.856 1325.9 965.54 1327.26 969.585C1328.7 973.881 1330.12 977.457 1331.39 980.446C1333.03 984.324 1334.42 987.222 1335.29 989.439Z" fill="#C13539"/>
<path d="M1364.28 852.518C1355.51 852.518 1348.37 859.653 1348.37 868.423V941.188C1348.37 949.954 1355.51 957.089 1364.28 957.089H1386.62C1395.39 957.089 1402.53 949.954 1402.53 941.188V868.423C1402.53 859.653 1395.39 852.518 1386.62 852.518H1364.28ZM1386.62 980.037H1364.28C1342.85 980.037 1325.42 962.608 1325.42 941.188V868.423C1325.42 847 1342.85 829.571 1364.28 829.571H1386.62C1408.05 829.571 1425.49 847 1425.49 868.423V941.188C1425.49 962.608 1408.05 980.037 1386.62 980.037Z" fill="#F99746"/>
<path d="M1620.91 918.208H1416.04V891.402H1620.91C1628.32 891.402 1634.32 897.403 1634.32 904.805C1634.32 912.208 1628.32 918.208 1620.91 918.208Z" fill="#F99746"/>
<path d="M1605.97 976.096C1600.03 976.096 1595.21 971.28 1595.21 965.339V912.809H1616.73V965.339C1616.73 971.28 1611.91 976.096 1605.97 976.096Z" fill="#F99746"/>
<path d="M1358.96 978.392L1362.46 979.674C1362.46 979.674 1369.46 974.726 1373.82 982.777C1373.82 982.777 1375.4 986.293 1372.9 987.058C1370.41 987.82 1371.32 987.102 1367.81 988.268C1364.3 989.436 1360.84 988.595 1359.52 986.091L1357.14 984.346L1358.96 978.392Z" fill="#FFB07B"/>
<path d="M1361.84 983.338C1363.13 979.964 1363.73 978.436 1363.73 978.436C1363.73 978.436 1337.3 956.909 1334.61 955.06C1332.77 953.803 1314.51 940.154 1305.61 929.52C1301.19 924.244 1294.22 921.831 1287.49 923.242L1281.94 924.404C1275.24 925.809 1273.07 934.286 1278.26 938.737C1292.9 951.277 1317.58 965.821 1322.18 968.848C1333.6 976.357 1358.87 986.882 1358.87 986.882C1358.87 986.882 1360.83 985.987 1361.84 983.338Z" fill="#F53B41"/>
<path d="M1297.25 911.086C1288.8 911.562 1283.31 904.588 1283.31 904.588C1283.31 904.588 1287.13 902.474 1289.21 900.915L1296.46 904.594C1296.46 904.594 1296.93 906.916 1297.25 911.086Z" fill="#EA8E50"/>
<path d="M1300.85 902.417C1300.85 902.417 1288.05 911.6 1282.45 903.542C1276.85 895.484 1271.43 891.244 1279.37 885.042C1287.31 878.837 1291.05 880.796 1293.57 883.032C1296.09 885.266 1304.04 899.819 1300.85 902.417Z" fill="#FFB07B"/>
<path d="M1294.92 875.756C1294.46 872.659 1293.43 870.48 1293.43 870.48C1293.43 870.48 1292.63 873.806 1286.55 873.346C1280.46 872.889 1270.83 873.945 1267.61 880.872C1267.41 881.313 1267.23 881.766 1267.06 882.232C1266.48 880.695 1266.34 878.392 1266.34 878.392C1265.19 881.376 1266.34 885.105 1266.34 885.105H1266.34C1266.33 885.215 1266.31 885.322 1266.3 885.433C1264.95 886.567 1263.83 890.092 1263.83 890.092C1264.23 889.109 1265.22 888.469 1266.1 888.072C1266.07 893.462 1268.26 898.732 1272.1 900.301C1277.71 902.597 1277.67 900.846 1283.31 904.588C1283.31 904.588 1284.82 902.71 1283.79 901.447C1282.76 900.187 1278.86 898.351 1281.04 896.518C1283.22 894.681 1284.02 896.744 1284.82 895.484C1285.63 894.221 1281.61 890.551 1286.77 887.112C1291.94 883.669 1295.38 878.852 1294.92 875.756Z" fill="#233862"/>
<path d="M1519.14 1117.13L1514.42 1118.89C1514.42 1118.89 1493.93 1090.48 1491.41 1065.5C1490.96 1061.03 1491.11 1056.71 1492.09 1052.72C1492.09 1052.72 1491.89 1051.58 1491.54 1049.55C1491.38 1048.61 1491.17 1047.48 1490.95 1046.18C1490.28 1042.36 1489.37 1037.14 1488.32 1031.2C1485.91 1017.52 1482.78 1000.04 1480.36 987.187L1481.63 986.781L1495.38 982.346L1498.22 973.324L1508.46 970.628C1508.46 970.628 1510.75 975.101 1512.79 996.228C1513.17 999 1513.51 1002.06 1513.77 1005.37C1514.56 1015.49 1514.62 1028.03 1512.79 1042.38C1512.32 1046.05 1511.73 1049.84 1511 1053.74C1510.46 1056.59 1510.38 1060.49 1510.6 1064.95C1511.63 1085.38 1519.14 1117.13 1519.14 1117.13Z" fill="#F53B41"/>
<path d="M1513.77 1005.37L1491.54 1049.55C1491.38 1048.61 1491.17 1047.48 1490.95 1046.18C1490.28 1042.36 1489.37 1037.14 1488.32 1031.2C1485.91 1017.52 1482.78 1000.04 1480.36 987.187L1481.63 986.781L1495.38 982.346L1498.22 973.324L1508.46 970.628C1508.46 970.628 1510.75 975.101 1512.79 996.228C1513.17 999 1513.51 1002.06 1513.77 1005.37Z" fill="#CB3C41"/>
<path d="M1503.99 976.298L1503.47 971.888C1494.85 974.174 1471.81 965.49 1471.81 965.49C1471.81 965.49 1463.46 972.829 1464.56 990.425C1465.09 999.012 1466.07 1035.5 1467.09 1046.3C1467.46 1050.22 1467.78 1053 1467.91 1054.12C1467.92 1054.12 1467.92 1054.12 1467.92 1054.13C1467.96 1054.46 1467.84 1054.79 1467.67 1055.08C1466.16 1057.63 1464.92 1060.29 1463.9 1063.01C1453.87 1089.71 1465.44 1122.59 1465.44 1122.59L1468.44 1121.38C1468.44 1121.38 1475.02 1084.79 1480.37 1068.62C1481.28 1065.88 1482.15 1063.72 1482.95 1062.43C1485.27 1058.68 1487.43 1052.55 1489.39 1045.26C1493.1 1031.48 1496.07 1013.54 1498.06 999.699C1498.33 999.712 1503.99 976.298 1503.99 976.298Z" fill="#F53B41"/>
<path d="M1556.59 921.551C1559.2 922.587 1561.75 924.631 1564.27 927.176C1564.27 927.176 1549.56 952.817 1541.1 956.544C1536.45 958.591 1521.91 943.065 1518.91 934.362C1518.18 932.235 1520.89 925.123 1520 923.626C1518.82 921.655 1518.25 919.724 1518.02 918.064C1517.96 917.812 1517.91 917.56 1517.93 917.282C1517.65 914.636 1518.19 912.835 1518.19 912.835C1518.53 911.971 1519.48 911.6 1520.9 911.622L1521.4 911.619C1529.01 916.101 1539.02 938.101 1540.67 938.617C1544.97 933.168 1556.59 921.551 1556.59 921.551Z" fill="#2D2521"/>
<path d="M1520.46 922.782C1517.75 924.039 1514.49 924.893 1510.53 925.11C1495.7 925.92 1492.34 912.929 1491.73 904.307C1493.86 903.533 1495.74 903.608 1496.81 903.665C1497.87 903.722 1498.96 903.832 1499.87 903.942C1501.68 902.994 1504.94 898.395 1506.82 890.703L1507.46 890.999L1518.16 896.026C1518.16 896.026 1517.02 899.504 1516.18 902.833C1515.53 905.438 1515.06 907.955 1515.45 908.661C1516.29 909.004 1516.8 909.218 1516.8 909.218C1516.8 909.218 1516.8 909.225 1516.8 909.231C1516.91 909.505 1519.24 915.427 1520.46 922.782Z" fill="#FFB27D"/>
<path d="M1524.17 932.506C1524.06 932.802 1523.93 933.092 1523.8 933.388C1520.04 941.471 1513.1 974.956 1513.1 974.956C1514.09 980.975 1467.84 973.774 1467.72 968.293C1466.09 962.479 1473.5 953.142 1477.67 948.458C1478.2 947.869 1478.67 947.239 1479.08 946.571C1480.11 944.902 1480.76 943.015 1480.97 941.043C1481.79 933.275 1478.74 915.355 1479.56 911.893C1479.88 910.538 1486.01 918.284 1486.74 917.506C1487.54 916.659 1488.05 915.792 1488.1 914.816C1488.15 914.076 1488.12 913.32 1488.05 912.56C1488.01 912.201 1487.97 911.845 1487.91 911.486C1487.34 907.725 1480.14 909.332 1480.14 909.332C1482.78 902.988 1496.82 903.492 1496.81 903.665C1496.81 903.838 1496.81 904.059 1496.8 904.701C1496.78 907.284 1496.8 913.915 1497.63 915.169C1498.67 916.734 1517.61 923.579 1518.62 921.459C1519.6 919.374 1516.9 909.599 1516.8 909.231C1516.8 909.225 1516.8 909.218 1516.8 909.218C1518.87 910.059 1521.4 911.619 1521.4 911.619C1523.78 916.388 1527.12 924.666 1524.17 932.506Z" fill="#26201D"/>
<path d="M1511.4 862.661C1511.38 862.019 1510.88 855.095 1500.33 854.733C1500.33 854.733 1505.52 855.353 1506.42 857.631C1506.42 857.631 1502.89 854.815 1500.01 855.722C1497.14 856.626 1495.44 861.666 1495.43 863.323C1495.41 864.98 1497.01 870.319 1498.83 870.776C1499.53 870.946 1500.32 870.902 1501.05 870.779C1500.56 871.535 1500.08 872.373 1499.63 873.305C1495.42 881.943 1499.76 890.385 1503.32 889.452C1505.61 888.854 1506.25 892.753 1506.25 892.753L1528.46 874.783C1528.46 874.783 1520.31 857.914 1511.4 862.661Z" fill="#BC3F3F"/>
<path d="M1518.16 896.026C1518.16 896.026 1517.02 899.504 1516.18 902.837C1509.93 901.091 1508.03 894.52 1507.46 890.999L1518.16 896.026Z" fill="#ED985F"/>
<path d="M1519.47 899.709C1519.47 899.709 1504.52 896.247 1506.82 886.967C1509.12 877.69 1508.73 870.993 1518.38 872.811C1528.03 874.628 1529 878.626 1528.99 881.908C1528.97 885.193 1523.43 900.37 1519.47 899.709Z" fill="#FFB27D"/>
<path d="M1529.83 876.641C1528.22 873.277 1526.33 873.456 1525.14 874.055C1518.11 867.553 1511.22 872.864 1511.22 872.864C1508.56 879.271 1502.81 881.889 1502.81 881.889C1502.81 881.889 1505.11 884.242 1511.77 884.192C1513.81 884.176 1515.85 883.24 1517.72 881.955C1514.12 885.568 1509.91 887.77 1509.91 887.77C1518.25 886.176 1523.84 876.525 1524.41 875.501C1525.12 876.543 1526.47 878.764 1526.59 880.638C1526.74 883.184 1525.86 888.129 1527.32 888.318C1527.32 888.318 1532.24 881.684 1529.83 876.641Z" fill="#BC3F3F"/>
<path d="M1482.89 1125.04H1459.14C1459.14 1125.04 1458.57 1121.42 1459.81 1118.68C1461 1116.04 1462.86 1114.85 1462.41 1111.66C1463.92 1113.21 1466.38 1114.95 1469.82 1114.49C1470.24 1115.17 1472.53 1118.82 1473.94 1119.83C1475.49 1120.95 1482.41 1120.55 1482.89 1125.04Z" fill="#233862"/>
<path d="M1533.9 1125.04H1510.14C1510.14 1125.04 1509.25 1121.26 1510.81 1118.68C1512.19 1116.4 1511.67 1115.1 1510.64 1113.22C1511.72 1113.65 1513.11 1114.05 1514.64 1113.97C1515.82 1113.9 1517.08 1113.36 1518.18 1112.72C1519.2 1113.89 1523.58 1118.85 1524.94 1119.83C1526.49 1120.95 1533.42 1120.55 1533.9 1125.04Z" fill="#233862"/>
<path d="M1566.21 918.208H1602.36L1600.35 904.191L1568.07 905.486L1566.21 918.208Z" fill="#F99746"/>
<path d="M1572.56 891.402C1570.87 893.081 1570.91 898.461 1567.36 900.994C1563.53 903.718 1562 906.516 1560.64 907.914C1560.14 908.488 1559.83 908.803 1559.83 908.803L1555.75 904.056C1555.75 904.056 1555.81 904.011 1555.93 903.876C1556.85 902.881 1559.17 900.424 1560.71 897.598C1564.09 891.402 1568.82 890.488 1568.82 890.488C1568.82 890.488 1571.23 890.391 1572.56 891.402Z" fill="#FFB27D"/>
<path d="M1558.24 900.323L1564.27 907.064C1564.27 907.064 1548.17 921.078 1544.81 923.989C1542.42 926.02 1540.16 927.677 1538.32 928.629C1538.14 928.726 1537.98 928.796 1537.76 928.877C1533.03 930.947 1522.83 930.717 1512.63 929.208C1511.21 929.003 1509.82 928.767 1508.46 928.547C1503.43 927.671 1498.65 926.521 1494.7 925.201C1492.34 924.439 1490.25 923.626 1488.64 922.77C1488.07 922.477 1487.53 922.199 1487.05 921.881C1479.08 917.103 1479.46 912.664 1479.61 911.074C1479.76 909.48 1480.91 907.376 1483.58 906.513C1489.91 904.459 1511.14 912.639 1514.27 913.231C1516.15 913.628 1521.03 915.358 1522.68 915.66C1525.82 916.221 1528.42 916.583 1530.2 916.589C1531.35 916.602 1533.38 915.89 1535.83 914.806C1540.12 912.932 1558.24 900.323 1558.24 900.323Z" fill="#322A26"/>
<path d="M1560.61 920.653C1560.11 919.831 1560.06 918.495 1560.06 918.495C1560.76 916.709 1562.3 914.703 1562.87 914.309C1563.44 913.912 1564.2 912.945 1564.38 913.591C1564.56 914.236 1563.7 917.607 1562.69 918.933C1561.69 920.259 1560.61 920.653 1560.61 920.653Z" fill="#FFB27D"/>
<path d="M1918.8 839.783C1923.87 848.603 1930.24 852.005 1930.24 852.005H1956.76C1956.76 852.005 1914.93 833.058 1918.8 839.783Z" fill="#ED7D2B"/>
<path d="M1937.59 908.469C1938.28 909.259 1938.88 909.215 1938.54 910.16C1938.54 910.163 1938.38 910.63 1938.38 910.633C1937.75 912.381 1936.55 913.606 1934.13 915.556C1933.82 915.805 1933.5 916.013 1933.26 916.224C1933.2 916.281 1932.77 916.366 1932.71 916.422C1932.66 916.463 1932.28 917.245 1932.23 917.286C1929.97 919.371 1930.43 918.766 1926.37 922.996C1921.73 927.819 1921.86 927.321 1920.96 926.884C1920.19 926.509 1919.87 925.611 1921.6 922.735C1921.68 922.596 1921.77 922.455 1921.85 922.316C1922.08 921.935 1922.31 921.544 1922.54 921.16C1924.57 917.701 1924.04 916.079 1923.57 910.929C1923.17 906.742 1917.05 887.553 1917.05 887.553L1925.94 886.022C1925.94 886.022 1928.62 901.302 1931.56 903.659C1933.14 904.912 1934.91 904.928 1936.42 905.857C1936.53 905.923 1936.63 905.99 1936.73 906.056C1937.6 906.629 1936.9 907.675 1937.59 908.469Z" fill="#FFB27D"/>
<path d="M1939.17 908.009C1939.86 908.803 1939.95 909.688 1939.6 910.633C1939.6 910.636 1939.6 910.642 1939.6 910.645C1938.82 912.39 1936.78 914.331 1934.44 916.274C1934.13 916.53 1933.86 916.763 1933.62 916.98C1933.56 917.037 1933.49 917.09 1933.44 917.147C1933.39 917.191 1933.34 917.235 1933.29 917.276C1931.03 919.361 1931.88 919.84 1927.81 924.071C1923.18 928.893 1919.99 928.982 1919.08 928.544C1918.31 928.169 1919.87 925.611 1921.6 922.735C1922.5 922.404 1926.69 920.7 1929.86 916.646C1932.66 913.087 1934.52 908.51 1936.42 905.857C1936.53 905.923 1936.63 905.99 1936.73 906.056C1937.6 906.629 1938.47 907.218 1939.17 908.009Z" fill="#BC3F3F"/>
<path d="M1865.87 901.932C1865.31 904.673 1863.54 903.904 1859.17 902.836C1854.8 901.769 1855.81 902.818 1849.6 902.128C1843.38 901.441 1842.82 900.455 1842.63 899.529C1842.46 898.71 1843.75 898.156 1847.05 897.774C1847.46 897.73 1847.88 897.677 1848.3 897.626C1852.02 897.16 1854.74 894.76 1858.12 892.791C1861.32 890.923 1866.1 883.316 1866.1 883.316L1874.62 883.993C1874.62 883.993 1870.15 890.785 1868.42 893.739C1867.4 895.475 1867.45 897.774 1867.58 899.548C1867.65 900.512 1866.06 900.965 1865.87 901.932Z" fill="#FFB27D"/>
<path d="M1858.69 903.681C1854.32 902.613 1855.36 903.882 1849.14 903.192C1842.93 902.506 1841.04 900.187 1840.85 899.264C1840.68 898.445 1843.75 898.156 1847.05 897.774L1847.08 897.837C1847.08 897.837 1850.81 900.48 1855.98 900.606C1860.2 900.707 1864.67 899.501 1867.58 899.548C1867.65 900.512 1867.71 901.498 1867.52 902.462C1866.97 905.205 1863.06 904.745 1858.69 903.681Z" fill="#BC3F3F"/>
<path d="M1900.19 847.967L1908.16 869.406L1918.56 897.396C1918.56 897.396 1921.39 897.67 1924.09 896.892C1926.58 896.174 1929.44 894.291 1929.44 894.291C1929.44 894.291 1926.55 864.233 1921.16 846.981C1919.78 842.552 1918.23 838.97 1916.52 836.954C1908.17 827.082 1900.19 847.967 1900.19 847.967Z" fill="#ED7D2B"/>
<path d="M1908.29 813.918C1913.51 812.233 1928.41 814.394 1943.37 817.323L1946.5 812.157L1978.81 809.637C1978.81 809.637 1989.46 833.266 1983.64 848.335C1982.22 852.005 1977.59 852.002 1977.59 852.005C1977.59 852.005 1958.46 852.005 1952.22 852.005C1936.15 852.005 1918.21 840.961 1915.89 840.498C1912.09 839.739 1910.57 847.333 1906.77 855.306C1902.97 863.279 1871.07 890.621 1871.07 890.621C1871.07 890.621 1866.16 890.668 1864.14 889.909C1861.96 889.093 1861.16 888.031 1861.16 888.031C1861.16 888.031 1896.52 817.714 1908.29 813.918Z" fill="#F99746"/>
<path d="M1946.69 767.673C1958.19 774.008 1981.54 787.137 1981.66 787.052C1981.66 787.052 1990.24 790.284 1995.11 787.052C2003.22 781.665 2007.57 767.172 1992.73 754.698C1985.33 748.477 1980.08 746.962 1979.28 737.03C1978.85 731.64 1971.48 713.852 1959.23 715.497C1958.21 715.635 1957.18 715.733 1956.14 715.701C1954.71 715.654 1952.35 715.862 1949.93 717.305C1943 721.428 1929.44 765.222 1946.69 767.673Z" fill="#233862"/>
<path d="M1956.33 762.283C1956.28 762.315 1961.99 764.265 1965.81 762.576C1969.41 760.989 1972.13 755.079 1972.08 755.073C1970.44 755.001 1968.65 753.571 1967.27 744.196L1966.57 744.448L1954.87 748.657C1954.87 748.657 1955.71 752.411 1956.26 755.983C1956.72 758.985 1956.97 761.858 1956.33 762.283Z" fill="#FFB27D"/>
<path d="M1954.87 748.657C1954.87 748.657 1955.71 752.411 1956.26 755.984C1962.98 754.774 1965.62 748.08 1966.57 744.448L1954.87 748.657Z" fill="#ED975D"/>
<path d="M1953.12 752.383C1953.12 752.383 1969.13 750.235 1967.64 740.287C1966.15 730.339 1967.21 723.362 1956.93 724.313C1946.64 725.265 1945.23 729.357 1944.92 732.799C1944.61 736.239 1948.92 752.685 1953.12 752.383Z" fill="#FFB27D"/>
<path d="M1945.5 727.347C1945.5 727.347 1955.75 736.176 1962.72 736.888C1969.69 737.6 1972.34 735.364 1972.34 735.364C1972.34 735.364 1968.23 731.952 1965.75 726.449C1965.02 724.824 1963.48 723.712 1961.71 723.561C1956.73 723.129 1947.3 722.934 1945.5 727.347Z" fill="#233862"/>
<path d="M1951.91 726.556C1951.91 726.556 1948.48 729.87 1947.4 732.327C1946.36 734.699 1946.05 740.375 1946.87 742.627C1946.87 742.627 1941.53 732.242 1944.56 727.199C1947.77 721.847 1951.91 726.556 1951.91 726.556Z" fill="#233862"/>
<path d="M1942.85 785.861C1943.34 818.262 1942.98 811.49 1946.53 814.564C1947.38 815.304 1949.78 815.748 1952.95 815.956C1962.88 816.615 1980.36 814.977 1981.02 813.143C1983.31 806.79 1981.69 804.815 1983.6 795.091C1983.81 794.054 1984.05 792.936 1984.34 791.717C1985.94 785.036 1987.49 782.765 1981.83 772.033C1976.7 762.309 1971.37 754.421 1970.89 754.705C1957.36 762.737 1956.26 755.987 1956.26 755.987C1956.26 755.987 1942.61 770.058 1942.85 785.861Z" fill="#F53B41"/>
<path d="M1908.16 869.406L1918.56 897.396C1918.56 897.396 1921.39 897.67 1924.09 896.892C1926.58 896.174 1929.44 894.291 1929.44 894.291C1929.44 894.291 1926.55 864.233 1921.16 846.981L1908.16 869.406Z" fill="#F99746"/>
<path d="M1956.26 755.983C1956.26 755.983 1942.33 758.343 1940.7 764.34C1939.06 770.335 1929.44 805.574 1929.44 805.574C1929.44 805.574 1936.52 806.847 1939.79 803.577C1943.06 800.307 1951.17 773.239 1951.17 773.239L1956.26 755.983Z" fill="#F53B41"/>
<path d="M1952.95 815.956C1962.88 816.615 1980.35 814.977 1981.02 813.143C1983.31 806.79 1981.69 804.815 1983.6 795.091L1978.81 781.596C1978.81 781.596 1979.61 796.622 1975.17 800.575C1970.74 804.525 1957.02 808.204 1954.87 811.505C1953.83 813.09 1953.15 814.681 1952.95 815.956Z" fill="#C13539"/>
<path d="M1964.33 809.637C1964.33 809.637 1954.53 807.454 1952.95 808.324C1951.36 809.193 1947.5 812.362 1947.01 813.465C1946.53 814.564 1950.54 812.627 1951.84 812.277C1952.68 812.05 1954.9 812.822 1956 813.187C1960.63 814.731 1963.47 813.937 1963.47 813.937L1964.33 809.637Z" fill="#FFB27D"/>
<path d="M1970.9 754.698C1970.9 754.698 1984.06 755.508 1988.62 761.861C1995.04 770.807 2007.76 808.929 2000.47 814.013C1992.26 819.736 1963.09 815.509 1963.09 815.509C1963.09 815.509 1962.12 810.976 1963.47 808.781C1964.82 806.585 1986.76 803.041 1987.78 802.03C1988.79 801.016 1975.11 782.283 1975.11 779.246C1975.11 776.21 1970.9 754.698 1970.9 754.698Z" fill="#F53B41"/>
<path d="M1952.47 811.052C1952.47 811.052 1950.42 813.701 1949.74 814.016C1949.07 814.334 1948.63 814.252 1948.63 814.252L1950.02 811.764L1952.47 811.052Z" fill="#FFB27D"/>
<path d="M1952.95 808.324L1946.97 811.222C1946.97 811.222 1947.23 811.638 1947.96 811.606C1948.7 811.571 1950.55 810.894 1950.55 810.894L1952.95 808.324Z" fill="#FFB27D"/>
<path d="M1949.74 818.073H1902.49L1888.28 782.743H1935.46L1949.74 818.073Z" fill="#163560"/>
<path d="M1901.94 816.697H1964.33V818.073H1902.49L1901.94 816.697Z" fill="#11294A"/>
<path d="M1914.42 800.408C1914.07 799.167 1914.78 798.159 1916.03 798.159C1917.27 798.159 1918.57 799.167 1918.92 800.408C1919.28 801.652 1918.56 802.657 1917.32 802.657C1916.07 802.657 1914.78 801.652 1914.42 800.408Z" fill="white"/>
<path d="M2138.08 1126.47H1232.65C1231.99 1126.47 1231.45 1125.93 1231.45 1125.27C1231.45 1124.61 1231.99 1124.06 1232.65 1124.06H2138.08C2138.75 1124.06 2139.29 1124.61 2139.29 1125.27C2139.29 1125.93 2138.75 1126.47 2138.08 1126.47Z" fill="#2E3552"/>
</svg>
