<svg width="2400" height="1802" viewBox="0 0 2400 1802" fill="none" xmlns="http://www.w3.org/2000/svg">
<rect width="2400" height="1802" fill="#FFF3ED"/>
<path d="M1683.63 1006.06V1005.41H1640.01V984.49H1682.99V1006.06H1683.63V1005.41V1006.06H1684.27V983.208H1638.73V1006.7H1684.27V1006.06H1683.63Z" fill="#BBC8EB"/>
<path d="M1727.9 1006.06V1005.41H1684.27V984.49H1727.26V1006.06H1727.9V1005.41V1006.06H1728.54V983.208H1682.99V1006.7H1728.54V1006.06H1727.9Z" fill="#BBC8EB"/>
<path d="M2031.71 824.83V824.189H1988.08V803.265H2031.07V824.83H2031.71V824.189V824.83H2032.35V801.983H1986.81V825.471H2032.35V824.83H2031.71Z" fill="#BBC8EB"/>
<path d="M2075.97 824.83V824.189H2032.35V803.265H2075.33V824.83H2075.97V824.189V824.83H2076.62V801.983H2031.07V825.471H2076.62V824.83H2075.97Z" fill="#BBC8EB"/>
<path d="M1610.57 581.77V581.129H1566.95V560.205H1609.93V581.77H1610.57V581.129V581.77H1611.21V558.923H1565.66V582.411H1611.21V581.77H1610.57Z" fill="#BBC8EB"/>
<path d="M1654.84 581.77V581.129H1611.21V560.205H1654.2V581.77H1654.84V581.129V581.77H1655.48V558.923H1609.93V582.411H1655.48V581.77H1654.84Z" fill="#BBC8EB"/>
<path d="M1305 1124.3H1570.68V680.343H1305V1124.3Z" fill="#C3927A"/>
<path d="M1321.83 1124.3H1553.85V697.45H1321.83V1124.3Z" fill="#FFC1A2"/>
<path d="M1519.53 829.978V829.019H1357.11V736.589H1518.57V829.978H1519.53V829.019V829.978H1520.5V734.667H1355.18V830.942H1520.5V829.978H1519.53Z" fill="white"/>
<path d="M1519.53 1093.07V1092.11H1357.11V964.667H1518.57V1093.07H1519.53V1092.11V1093.07H1520.5V962.745H1355.18V1094.03H1520.5V1093.07H1519.53" fill="white"/>
<path d="M1519.39 883.092C1519.39 871.761 1509.58 862.716 1497.99 863.998C1489.14 864.972 1482 872.155 1481.07 881.01C1480.33 888.029 1483.38 894.367 1488.42 898.269V913.184C1488.42 919.675 1493.68 924.941 1500.17 924.941C1506.66 924.941 1511.93 919.675 1511.93 913.184V898.269C1516.46 894.756 1519.39 889.27 1519.39 883.092" fill="white"/>
<path d="M1511.95 898.248C1511.96 898.243 1511.96 898.238 1511.97 898.238C1511.96 898.238 1511.96 898.243 1511.95 898.248ZM1511.98 898.228C1511.99 898.223 1511.99 898.217 1512 898.212C1511.99 898.217 1511.99 898.223 1511.98 898.228ZM1512.01 898.207C1512.01 898.202 1512.02 898.197 1512.03 898.192C1512.02 898.197 1512.01 898.202 1512.01 898.207ZM1512.03 898.187C1512.04 898.182 1512.05 898.171 1512.06 898.166C1512.05 898.171 1512.04 898.182 1512.03 898.187ZM1512.06 898.166C1512.07 898.161 1512.08 898.151 1512.08 898.146C1512.08 898.151 1512.07 898.161 1512.06 898.166ZM1512.08 898.146C1514.98 895.849 1517.21 892.741 1518.4 889.168C1517.21 892.741 1514.98 895.849 1512.08 898.146ZM1518.4 889.163C1518.43 889.091 1518.45 889.014 1518.48 888.937C1518.45 889.014 1518.43 889.091 1518.4 889.163ZM1518.48 888.937C1518.48 888.927 1518.48 888.922 1518.49 888.911C1518.48 888.922 1518.48 888.927 1518.48 888.937ZM1518.49 888.901C1518.49 888.896 1518.49 888.886 1518.5 888.881C1518.49 888.886 1518.49 888.896 1518.49 888.901ZM1518.5 888.865C1518.5 888.86 1518.5 888.855 1518.51 888.845C1518.5 888.855 1518.5 888.86 1518.5 888.865ZM1518.51 888.834C1518.51 888.824 1518.52 888.819 1518.52 888.814C1518.52 888.819 1518.51 888.824 1518.51 888.834ZM1518.52 888.793C1518.52 888.788 1518.53 888.783 1518.53 888.778C1518.53 888.783 1518.52 888.788 1518.52 888.793ZM1518.53 888.757C1518.54 888.752 1518.54 888.747 1518.54 888.742C1518.54 888.747 1518.54 888.752 1518.53 888.757ZM1518.55 888.711H1518.55H1518.55ZM1518.58 888.604C1518.58 888.599 1518.58 888.599 1518.58 888.599C1518.58 888.599 1518.58 888.599 1518.58 888.604ZM1518.59 888.568C1518.59 888.563 1518.59 888.563 1518.59 888.558C1518.59 888.563 1518.59 888.563 1518.59 888.568ZM1518.6 888.532C1518.6 888.527 1518.6 888.527 1518.61 888.522C1518.6 888.527 1518.6 888.527 1518.6 888.532ZM1518.61 888.496C1518.61 888.491 1518.61 888.491 1518.62 888.491C1518.61 888.491 1518.61 888.491 1518.61 888.496ZM1518.63 888.455H1518.63H1518.63ZM1519.37 882.256C1519.37 882.251 1519.37 882.241 1519.37 882.236C1519.37 882.241 1519.37 882.251 1519.37 882.256ZM1519.37 882.215C1519.28 880.2 1518.88 878.267 1518.21 876.462C1518.75 877.908 1519.11 879.436 1519.28 881.01C1519.32 881.415 1519.35 881.815 1519.37 882.215ZM1507.94 865.51C1505.96 864.634 1503.79 864.08 1501.52 863.921C1501.8 863.941 1502.08 863.967 1502.36 863.998C1504.32 864.213 1506.2 864.736 1507.94 865.51" fill="#9DAEDB"/>
<path d="M1500.17 924.941C1499.48 924.941 1498.8 924.869 1498.14 924.751C1502.96 923.29 1506.48 918.809 1506.48 913.507V898.592C1511.51 894.685 1514.57 888.352 1513.83 881.333C1512.9 872.478 1505.76 865.295 1496.91 864.316C1496.7 864.295 1496.49 864.3 1496.27 864.28C1497.55 864.018 1498.86 863.88 1500.21 863.88C1500.64 863.88 1501.08 863.895 1501.52 863.921C1503.79 864.08 1505.96 864.634 1507.94 865.51C1512.67 867.618 1516.41 871.591 1518.21 876.462C1518.88 878.267 1519.28 880.2 1519.37 882.215C1519.37 882.22 1519.37 882.225 1519.37 882.236C1519.37 882.241 1519.37 882.251 1519.37 882.256C1519.46 884.415 1519.2 886.502 1518.63 888.455H1518.63C1518.62 888.465 1518.62 888.476 1518.62 888.491C1518.62 888.491 1518.61 888.491 1518.61 888.496C1518.61 888.506 1518.61 888.511 1518.61 888.522C1518.6 888.527 1518.6 888.527 1518.6 888.532C1518.6 888.542 1518.6 888.552 1518.59 888.558C1518.59 888.563 1518.59 888.563 1518.59 888.568C1518.59 888.578 1518.59 888.588 1518.58 888.599C1518.58 888.599 1518.58 888.599 1518.58 888.604C1518.57 888.64 1518.56 888.676 1518.55 888.711H1518.55C1518.54 888.722 1518.54 888.732 1518.54 888.742C1518.54 888.747 1518.54 888.752 1518.54 888.758C1518.53 888.763 1518.53 888.773 1518.53 888.778C1518.53 888.783 1518.52 888.788 1518.52 888.793C1518.52 888.799 1518.52 888.804 1518.52 888.814C1518.52 888.819 1518.51 888.824 1518.51 888.834C1518.51 888.834 1518.51 888.84 1518.51 888.845C1518.5 888.855 1518.5 888.86 1518.5 888.865C1518.5 888.87 1518.5 888.875 1518.5 888.881C1518.49 888.886 1518.49 888.896 1518.49 888.901C1518.49 888.906 1518.49 888.906 1518.49 888.911C1518.48 888.922 1518.48 888.927 1518.48 888.937C1518.45 889.014 1518.43 889.091 1518.4 889.163C1518.4 889.168 1518.4 889.168 1518.4 889.168C1517.21 892.741 1514.98 895.849 1512.08 898.146H1512.08C1512.08 898.151 1512.07 898.161 1512.06 898.166C1512.05 898.171 1512.04 898.182 1512.03 898.187C1512.03 898.187 1512.03 898.187 1512.03 898.192C1512.02 898.197 1512.01 898.202 1512.01 898.207C1512 898.207 1512 898.212 1512 898.212C1511.99 898.217 1511.99 898.223 1511.98 898.228C1511.98 898.233 1511.97 898.233 1511.97 898.238C1511.96 898.238 1511.96 898.243 1511.95 898.248C1511.94 898.258 1511.93 898.264 1511.93 898.269V913.184C1511.93 919.675 1506.66 924.941 1500.17 924.941Z" fill="#BBC4DB"/>
<path d="M1485.44 806.675H1391.52C1383.51 806.675 1376.95 800.117 1376.95 792.103V778.7C1376.95 770.686 1383.51 764.133 1391.52 764.133H1485.44C1493.45 764.133 1500.01 770.686 1500.01 778.7V792.103C1500.01 800.117 1493.45 806.675 1485.44 806.675Z" fill="#C72C31"/>
<path d="M1485.44 802.398H1391.52C1383.51 802.398 1376.95 795.846 1376.95 787.832V774.429C1376.95 766.415 1383.51 759.857 1391.52 759.857H1485.44C1493.45 759.857 1500.01 766.415 1500.01 774.429V787.832C1500.01 795.846 1493.45 802.398 1485.44 802.398Z" fill="#F53B41"/>
<path d="M1952.49 1041.67C1977.81 1043.6 1991.44 1058.34 2001.84 1069.87C2013.2 1082.46 2024.74 1089.64 2028.55 1101.28C1996.08 1099.14 1958.26 1079.81 1952.49 1041.67Z" fill="#EE6F57"/>
<path d="M1970.98 1002.51C1970.98 1002.51 2006.86 1023.73 2011.99 1046.38C2016.42 1065.93 2021.18 1086.81 2018.26 1103.2C1982.19 1079.81 1968.41 1044.24 1970.98 1002.51Z" fill="#AE5140"/>
<path d="M2084.2 1049.05C2062.46 1049.2 2047.62 1058.51 2036.14 1066.35C2024.65 1074.19 2022.19 1088.12 2017.87 1097.19C2048.59 1092.42 2081.33 1065.6 2084.2 1049.05Z" fill="#AE5140"/>
<path d="M2054.89 967.293C2064.99 990.442 2066.89 1017.08 2060.19 1041.43C2053.48 1065.79 2038.21 1087.69 2017.68 1102.41C1988.01 1051.96 2010.31 986.628 2054.89 967.293Z" fill="#EE6F57"/>
<path d="M2023.8 1075.19L2022.56 1074.86L2044.38 992.775L2045.62 993.103L2023.8 1075.19" fill="white"/>
<path d="M2037.55 1018.84L2031.94 992.934L2033.19 992.662L2038.8 1018.57L2037.55 1018.84Z" fill="white"/>
<path d="M2034.06 1036.79L2033.1 1035.94L2053.01 1013.41L2053.98 1014.26L2034.06 1036.79Z" fill="white"/>
<path d="M2028.66 1051.67L2018.45 1025.53L2019.65 1025.06L2029.85 1051.21L2028.66 1051.67Z" fill="white"/>
<path d="M2026.1 1066.62L2025.29 1065.62L2046.47 1048.38L2047.28 1049.37L2026.1 1066.62" fill="white"/>
<path d="M2033.08 1124.42H1995.6C1984.92 1124.42 1975.94 1116.4 1974.74 1105.79L1973 1090.46H2055.68L2053.94 1105.79C2052.74 1116.4 2043.76 1124.42 2033.08 1124.42" fill="#AE5140"/>
<path d="M1681.92 765.22C1681.92 765.22 1664.72 775.259 1667.12 782.417L1677.43 784.345L1681.92 765.22Z" fill="#102048"/>
<path d="M1679.1 764.343L1669.38 770.614C1667.21 771.04 1661.93 767.922 1658.91 761.657H1658.89C1658.29 761.313 1657.71 760.811 1657.2 760.308C1656.34 759.462 1656.03 758.288 1656.22 757.227C1656.41 756.232 1657 755.345 1658 754.848C1658.11 752.438 1658.74 750.669 1660.97 750.833C1660.94 748.603 1662.17 747.136 1666.15 747.351C1665.81 744.152 1667.44 743.378 1670.12 743.891C1672.08 744.265 1673.85 745.306 1675.24 746.721C1675.65 747.131 1676.03 747.546 1676.39 747.962C1676.88 748.526 1677.32 749.141 1677.67 749.772C1678.99 751.971 1679.6 754.514 1679.46 757.088L1679.1 764.343" fill="#F9B384"/>
<path d="M1674.64 754.771L1672.07 751.966C1670.35 752.715 1668.91 752.843 1667.78 752.345C1666.49 751.776 1666.11 750.602 1666.09 750.556L1666.02 750.341L1669.48 747.413C1670.53 746.623 1673.03 746.531 1674.3 746.803L1674.15 747.469C1672.92 747.203 1670.67 747.372 1669.91 747.946L1666.83 750.551C1666.98 750.848 1667.34 751.407 1668.06 751.725C1669.06 752.156 1670.39 751.997 1672.01 751.248L1672.23 751.141L1675.15 754.309L1674.64 754.771" fill="#E28B6D"/>
<path d="M1660.85 762.339C1660.25 762.339 1659.57 762.221 1658.81 761.985L1659.01 761.334C1661.06 761.964 1662.28 761.703 1663.21 760.416L1663.76 760.816C1663.02 761.841 1662.09 762.339 1660.85 762.339" fill="#E28B6D"/>
<path d="M1669.32 760.072C1668.48 760.072 1667.53 759.611 1666.13 758.626C1663.93 757.073 1662.49 754.484 1662.43 754.371L1663.03 754.043C1663.05 754.068 1664.46 756.606 1666.53 758.068C1668.74 759.626 1669.49 759.616 1670.44 758.996C1670.56 758.914 1670.63 758.806 1670.65 758.657C1670.77 757.934 1669.91 756.632 1669.59 756.232C1669.5 756.104 1667.43 753.238 1666.85 751.715L1667.49 751.474C1668.03 752.915 1670.12 755.796 1670.14 755.822C1670.27 755.996 1671.51 757.622 1671.33 758.765C1671.27 759.103 1671.09 759.38 1670.81 759.565C1670.31 759.898 1669.84 760.072 1669.32 760.072" fill="#E28B6D"/>
<path d="M1664.27 760.934C1662.81 760.934 1661.29 760.247 1659.96 758.283C1659.9 758.201 1659.86 758.139 1659.83 758.109L1660.23 757.56C1660.33 757.616 1660.39 757.698 1660.52 757.898C1661.19 758.888 1663.22 761.887 1667.6 759.114L1667.97 759.688C1666.9 760.37 1665.61 760.934 1664.27 760.934Z" fill="#E28B6D"/>
<path d="M1672.05 758.75C1671.73 758.75 1671.38 758.688 1670.99 758.575L1671.19 757.919C1671.99 758.16 1672.58 758.098 1672.95 757.739C1673.91 756.801 1673.43 754.012 1673.17 753.012L1673.82 752.838C1673.87 753.002 1674.87 756.822 1673.42 758.227C1673.07 758.575 1672.61 758.75 1672.05 758.75" fill="#E28B6D"/>
<path d="M1686.97 773.808L1674.85 785.063L1671.62 779.489L1667.71 772.721L1665.92 769.619L1664.79 767.671L1678.94 760.324L1679.26 760.877L1681.86 765.246L1681.89 765.271L1686.97 773.808Z" fill="#F9B384"/>
<path d="M1790.43 724.74L1786.35 758.247L1762.57 757.211L1764.02 747.982L1765.53 738.353L1765.86 736.225L1790.43 724.74Z" fill="#F9B384"/>
<path d="M1781.02 737.984C1781.02 737.984 1777.05 746.044 1764.02 747.982L1765.53 738.353L1781.02 737.984Z" fill="#102048"/>
<path d="M1865.86 678.861C1866.49 667.606 1868.32 658.039 1873.07 652.583L1893.58 661.392C1890.32 671.872 1885.31 680.799 1879.96 689.433L1865.86 678.861" fill="#F9B384"/>
<path d="M1858.17 920.962L1885.73 920.644L1890.21 966.79C1883.7 960.704 1878.32 951.988 1873.87 941.154L1855.28 934.744L1858.17 920.962Z" fill="#EE6F57"/>
<path d="M1757.81 1034.15L1768.54 1066.35L1735.98 1090.05C1737.18 1081.21 1741.19 1071.78 1747.46 1061.89L1741.95 1043.02L1757.81 1034.15" fill="#EE6F57"/>
<path d="M1745.69 948.522L1767.48 1040.17L1735.43 1051.71L1706.24 973.004C1701.86 961.201 1700.95 948.393 1703.62 936.088L1723.26 845.334L1727.74 824.825L1761.07 832.516L1766.79 875.37L1767.48 880.585L1756.61 914.476L1745.69 948.522" fill="#26201D"/>
<path d="M1754.18 921.926C1748.64 903.975 1752.32 883.312 1754.82 873.14L1763.55 892.793L1754.18 921.926Z" fill="#181513"/>
<path d="M1795.25 840.638L1820.89 919.68L1864.47 917.547L1860.62 956.428L1811.57 962.201C1801.86 963.339 1792.55 958.033 1788.58 949.101L1735.43 829.527L1791.83 827.389L1795.25 840.638Z" fill="#26201D"/>
<path d="M1790.53 720.895C1797.33 716.916 1800.69 710.83 1800.29 704.133C1799.78 695.407 1793.01 688.1 1784.38 686.726C1777.54 685.639 1769.62 687.183 1761.04 690.392C1745.06 678.128 1729.3 708.399 1756.2 716.167L1790.53 720.895" fill="#102048"/>
<path d="M1791.73 724.74C1791.73 724.74 1787.1 743.034 1768.2 742.711C1759.72 742.573 1756.49 737.471 1755.51 731.882C1754.9 728.498 1755.13 724.92 1755.52 722.166C1755.92 719.331 1756.48 717.372 1756.48 717.372L1755.72 706.682L1767.05 700.17L1790.13 704.872L1791.73 724.74Z" fill="#F9B384"/>
<path d="M1789.06 719.715C1790.55 715.229 1788.84 709.999 1782.86 707.861C1774.94 712.67 1762.99 711.922 1753.59 707.328L1752.21 703.908L1759.47 696.965L1779.12 694.827L1794.18 700.596L1794.61 709.568L1793.33 717.049L1789.06 719.715" fill="#102048"/>
<path d="M1762.89 716.89C1762.89 718.31 1762.16 719.459 1761.25 719.459C1760.35 719.459 1759.61 718.31 1759.61 716.89C1759.61 715.475 1760.35 714.326 1761.25 714.326C1762.16 714.326 1762.89 715.475 1762.89 716.89Z" fill="#102048"/>
<path d="M1777.01 718.326C1776.89 719.797 1776.03 720.925 1775.09 720.854C1774.15 720.777 1773.48 719.521 1773.6 718.049C1773.72 716.577 1774.58 715.444 1775.52 715.521C1776.46 715.598 1777.12 716.849 1777.01 718.326Z" fill="#102048"/>
<path d="M1768.06 716.967C1767.6 717.972 1767.09 718.926 1766.54 719.885C1765.98 720.864 1765.29 721.715 1764.89 722.602C1764.47 723.479 1764.43 724.33 1764.89 725.181C1765.33 726.053 1766.05 726.894 1766.65 727.832L1766.27 728.16C1765.46 727.447 1764.57 726.771 1763.92 725.745C1763.57 725.232 1763.34 724.591 1763.32 723.925C1763.3 723.253 1763.47 722.612 1763.73 722.069C1764.26 720.966 1765 720.131 1765.63 719.29C1766.27 718.418 1766.93 717.531 1767.64 716.7L1768.06 716.967" fill="#102048"/>
<path d="M1762.87 732.631C1762.6 732.585 1774.02 730.683 1774.02 730.683C1773.44 738.707 1764.88 739.553 1762.87 732.631Z" fill="white"/>
<path d="M1793.96 835.634L1791.83 827.389L1787.42 827.558L1787.76 824.507L1797.37 824.087L1793.96 835.634Z" fill="#707991"/>
<path d="M1760.69 847.473C1756.11 847.473 1751.48 847.119 1746.82 846.437C1747.53 844.273 1748.24 841.95 1748.94 839.494C1750.58 839.828 1752.27 840.089 1753.98 840.274C1756.25 840.52 1758.59 840.643 1760.98 840.643C1762.31 840.643 1763.66 840.602 1765.03 840.53C1771.77 840.171 1778.92 838.941 1786.38 837.003L1787.42 827.558L1791.83 827.389L1793.96 835.634L1792.26 841.366C1782 845.524 1771.46 847.473 1760.69 847.473" fill="#162B62"/>
<path d="M1791.83 787.334L1786.38 837.003C1778.92 838.941 1771.77 840.171 1765.03 840.53C1761.21 840.735 1757.52 840.658 1753.98 840.274C1747.48 839.566 1741.46 837.813 1736.01 834.823C1734.27 833.865 1732.57 832.772 1730.95 831.557L1740.92 791.487V791.446L1744.52 776.962L1746.65 768.425L1763.47 751.453C1768.27 755.786 1777.73 756.401 1787.19 752.402L1787.89 757.632L1791.83 787.334Z" fill="white"/>
<path d="M1765.03 840.53C1766.27 825.235 1768.76 791.046 1781.78 764.492C1784.18 763.328 1786.36 761.78 1788.19 759.898L1791.83 787.334L1786.38 837.003C1778.92 838.941 1771.77 840.171 1765.03 840.53ZM1782.77 762.539C1783.36 761.39 1783.98 760.252 1784.62 759.134L1787.89 757.632L1788.18 759.847C1786.4 760.867 1784.6 761.78 1782.77 762.539" fill="#BBC4DB"/>
<path d="M1772.68 766.712C1769.95 766.712 1767.13 766.092 1764.79 764.564C1764.04 764.097 1763.36 763.544 1762.76 762.918C1762.8 762.426 1762.84 761.944 1762.89 761.462C1763.7 762.185 1764.58 762.8 1765.54 763.272C1767.65 764.333 1770.02 764.8 1772.4 764.8C1772.64 764.8 1772.87 764.795 1773.1 764.784C1775.73 764.718 1778.35 764.123 1780.89 763.256C1781.52 763.036 1782.15 762.795 1782.77 762.539C1782.43 763.185 1782.11 763.836 1781.79 764.492C1781.68 764.543 1781.57 764.595 1781.46 764.646C1778.89 765.856 1776.06 766.599 1773.16 766.707C1773 766.712 1772.84 766.712 1772.68 766.712" fill="#BBC4DB"/>
<path d="M1788.19 759.898L1788.18 759.847C1788.22 759.821 1788.27 759.801 1788.31 759.775C1788.27 759.816 1788.22 759.857 1788.19 759.898Z" fill="#BBC4DB"/>
<path d="M1781.79 764.492C1782.11 763.836 1782.43 763.185 1782.77 762.539C1784.61 761.78 1786.4 760.867 1788.18 759.847L1788.19 759.898C1786.36 761.78 1784.18 763.328 1781.79 764.492" fill="#8C9BC2"/>
<path d="M1753.98 840.274C1752.27 840.089 1750.59 839.828 1748.94 839.494C1755.06 818.103 1760.6 786.632 1762.67 764C1763.16 793.277 1759.65 823.364 1753.98 840.274Z" fill="#BBC4DB"/>
<path d="M1763.47 751.453C1762.67 779.131 1752.52 835.941 1743.13 856.015C1733.36 855.81 1715.29 854.22 1708.83 851.426L1730.31 792.139C1721.34 798.538 1711.14 805.393 1701.41 810.828C1695.61 814.058 1687.27 813.073 1683.62 807.521L1667.12 782.412C1668.46 781.73 1669.69 780.951 1670.84 780.089C1675.87 776.362 1679.25 771.117 1681.92 765.22L1698.58 785.089L1727.04 761.57C1730.23 758.914 1734.05 757.119 1738.11 756.324L1763.47 751.453" fill="#708CD5"/>
<path d="M1787.05 752.453C1773.76 774.567 1769.75 819.662 1771 853.348C1790.55 856.02 1805.93 842.453 1805.93 842.453L1809.62 787.975L1844.89 754.607C1849.44 750.064 1853.32 744.885 1856.39 739.235L1884.13 688.152L1864.26 674.641L1831.78 726.124L1812.02 746.695C1807.88 750.997 1802.08 753.274 1796.12 752.925L1787.05 752.453" fill="#708CD5"/>
<path d="M1798.24 722.387C1797.6 726.663 1793.45 729.544 1790.02 729.544C1786.58 729.544 1786.62 726.642 1786.62 722.535C1786.62 718.428 1789.36 714.911 1792.79 714.911C1796.22 714.911 1798.96 717.623 1798.24 722.387" fill="#F9B384"/>
<path d="M1780.69 731.616C1777.97 731.616 1775.77 729.411 1775.77 726.699C1775.77 723.981 1777.97 721.782 1780.69 721.782C1783.4 721.782 1785.6 723.981 1785.6 726.699C1785.6 729.411 1783.4 731.616 1780.69 731.616Z" fill="#FB997D"/>
<path d="M1755.51 731.882C1755.24 730.39 1755.14 728.857 1755.14 727.376C1755.14 725.499 1755.3 723.704 1755.52 722.166C1757.9 722.499 1759.82 723.299 1759.72 727.022C1759.66 729.498 1757.9 731.549 1755.51 731.882" fill="#FB997D"/>
<path d="M1727.07 803.403L1725.86 802.988L1734.19 778.792L1735.4 779.213L1727.07 803.403Z" fill="#1F3C88"/>
<path d="M1809.29 800.84L1808.02 800.742L1810.26 771.901L1811.54 771.999L1809.29 800.84Z" fill="#1F3C88"/>
<path d="M1681.87 765.251L1681.86 765.246L1681.91 765.221C1681.91 765.221 1681.9 765.231 1681.87 765.251Z" fill="#EEB9A7"/>
<path d="M1681.89 765.271L1681.87 765.251C1681.9 765.231 1681.91 765.221 1681.91 765.221L1681.89 765.271Z" fill="#8E605E"/>
<path d="M1671.62 779.49L1667.71 772.721L1681.86 765.246L1681.87 765.251L1681.89 765.271C1679.49 770.553 1676.53 775.3 1672.31 778.915C1672.09 779.11 1671.86 779.3 1671.62 779.49" fill="#EB9B76"/>
<path d="M1671.62 779.49C1671.86 779.3 1672.09 779.11 1672.31 778.915C1672.09 779.11 1671.86 779.3 1671.62 779.49Z" fill="#B48B97"/>
<path d="M1790.61 722.72C1790.21 722.017 1790.02 721.166 1790.09 720.31C1790.14 719.449 1790.51 718.582 1791.15 717.921C1791.79 717.264 1792.82 716.859 1793.77 717.116C1794.71 717.336 1795.35 718.023 1795.74 718.721L1795.36 719.039C1794.77 718.587 1794.15 718.269 1793.58 718.223C1793.01 718.167 1792.48 718.413 1792.05 718.828C1791.62 719.249 1791.33 719.833 1791.16 720.469C1791 721.115 1791 721.818 1791.09 722.551L1790.61 722.72" fill="#102048"/>
<path d="M1793.75 614.513L1776.39 606.838L1790.21 575.546L1800.23 579.97C1804.28 581.76 1806.13 586.508 1804.33 590.574L1793.75 614.513" fill="#F99746"/>
<path d="M1795.76 609.965L1778.4 602.29L1779.97 598.726L1783.14 591.553L1800.5 599.229L1800.16 600.018L1795.76 609.965Z" fill="#E3802E"/>
<path d="M1921.91 682.84L1917.81 681.03L1772.07 616.621L1781.08 596.24L1926.23 660.382L1930.92 662.459C1931.18 670.519 1928.62 677.405 1921.91 682.84Z" fill="#F99746"/>
<path d="M1921.91 682.84L1917.81 681.03C1920.02 673.98 1922.64 667.048 1926.23 660.382L1930.92 662.459C1931.18 670.519 1928.62 677.405 1921.91 682.84Z" fill="#E08539"/>
<path d="M1941.97 732.057C1926.12 725.048 1918.07 706.764 1920.74 687.413C1921.42 682.301 1922.86 677.138 1925.09 672.077C1927.21 667.283 1929.89 662.935 1932.98 659.141C1945.5 643.688 1964.72 637.068 1980.81 644.18C2000.85 653.035 2008.42 679.876 1997.69 704.159C1986.96 728.416 1962.01 740.912 1941.97 732.057" fill="#F99746"/>
<path d="M1949.49 715.039C1937.2 709.609 1932.57 693.151 1939.15 678.281C1945.72 663.407 1961.01 655.752 1973.29 661.182C1985.58 666.612 1990.21 683.07 1983.64 697.94C1977.06 712.814 1961.78 720.469 1949.49 715.039" fill="white"/>
<path d="M1949.49 715.034C1948.65 714.66 1947.86 714.244 1947.1 713.773C1958.88 717.213 1972.58 709.615 1978.7 695.766C1984.83 681.896 1981.22 666.648 1970.75 660.264C1971.61 660.505 1972.45 660.808 1973.29 661.182C1985.57 666.612 1990.2 683.06 1983.63 697.945C1977.06 712.809 1961.78 720.464 1949.49 715.034" fill="#E08539"/>
<path d="M1868.05 562.122L1867.18 562.163C1864.95 562.266 1863.05 560.528 1862.94 558.302L1860.65 508.28C1860.55 506.055 1862.28 504.148 1864.51 504.045L1865.38 504.004C1867.61 503.902 1869.51 505.64 1869.61 507.87L1871.91 557.887C1872.01 560.118 1870.27 562.02 1868.05 562.122Z" fill="#F99746"/>
<path d="M1920.68 584.672L1921.18 585.385C1922.46 587.21 1925 587.661 1926.82 586.385L1967.87 557.708C1969.7 556.431 1970.15 553.893 1968.88 552.068L1968.38 551.355C1967.1 549.524 1964.56 549.073 1962.73 550.35L1921.68 579.027C1919.86 580.304 1919.41 582.842 1920.68 584.672Z" fill="#F99746"/>
<path d="M1897.57 571.89C1895.28 570.993 1894.13 568.373 1895.03 566.076L1917.81 507.998C1918.71 505.701 1921.32 504.563 1923.62 505.46C1925.92 506.363 1927.06 508.978 1926.16 511.275L1903.39 569.352C1902.49 571.649 1899.87 572.792 1897.57 571.89Z" fill="#F99746"/>
<path d="M1400.67 784.717C1400.67 784.995 1400.61 785.251 1400.5 785.486C1400.38 785.714 1400.22 785.91 1400 786.073C1399.79 786.237 1399.52 786.365 1399.2 786.458C1398.9 786.551 1398.54 786.597 1398.14 786.597C1397.69 786.597 1397.27 786.547 1396.89 786.447C1396.52 786.348 1396.2 786.191 1395.93 785.977C1395.66 785.764 1395.45 785.49 1395.3 785.155C1395.15 784.82 1395.06 784.418 1395.05 783.948H1392.08C1392.08 784.753 1392.23 785.454 1392.54 786.052C1392.86 786.65 1393.29 787.17 1393.82 787.611C1394.39 788.06 1395.05 788.402 1395.81 788.637C1396.58 788.865 1397.36 788.979 1398.14 788.979C1398.94 788.979 1399.67 788.886 1400.35 788.701C1401.02 788.509 1401.6 788.227 1402.09 787.857C1402.58 787.494 1402.96 787.049 1403.23 786.522C1403.51 785.988 1403.65 785.379 1403.65 784.696C1403.65 783.905 1403.47 783.207 1403.1 782.602C1402.73 781.997 1402.24 781.466 1401.63 781.011C1401.22 780.733 1400.77 780.487 1400.28 780.274C1399.79 780.06 1399.28 779.879 1398.74 779.729C1398.24 779.594 1397.79 779.448 1397.39 779.291C1396.99 779.134 1396.65 778.96 1396.37 778.768C1396.09 778.583 1395.88 778.372 1395.73 778.138C1395.58 777.903 1395.51 777.639 1395.51 777.347C1395.51 777.069 1395.57 776.813 1395.67 776.578C1395.79 776.336 1395.95 776.126 1396.17 775.948C1396.38 775.777 1396.65 775.645 1396.96 775.553C1397.27 775.453 1397.63 775.403 1398.03 775.403C1398.47 775.403 1398.85 775.464 1399.17 775.585C1399.5 775.699 1399.78 775.859 1400 776.065C1400.22 776.279 1400.38 776.532 1400.49 776.824C1400.6 777.116 1400.66 777.436 1400.68 777.785H1403.63C1403.63 777.087 1403.49 776.446 1403.22 775.862C1402.95 775.279 1402.57 774.773 1402.08 774.346C1401.59 773.926 1401.01 773.598 1400.32 773.363C1399.65 773.128 1398.9 773.011 1398.09 773.011C1397.3 773.011 1396.56 773.114 1395.89 773.32C1395.22 773.52 1394.63 773.808 1394.14 774.186C1393.64 774.563 1393.25 775.019 1392.97 775.553C1392.69 776.087 1392.55 776.681 1392.55 777.336C1392.55 777.906 1392.66 778.433 1392.87 778.917C1393.08 779.401 1393.4 779.843 1393.81 780.242C1394.23 780.64 1394.76 781.007 1395.42 781.342C1396.08 781.676 1396.84 781.961 1397.71 782.196C1398.27 782.346 1398.73 782.51 1399.11 782.688C1399.49 782.858 1399.8 783.047 1400.03 783.254C1400.26 783.467 1400.42 783.695 1400.52 783.937C1400.62 784.179 1400.67 784.439 1400.67 784.717Z" fill="white"/>
<path d="M1415.41 781.961V779.59H1408.98V775.67H1416.47V773.224H1405.94V788.776H1416.5V786.351H1408.98V781.961H1415.41Z" fill="white"/>
<path d="M1429.89 783.905H1426.87C1426.84 784.375 1426.76 784.777 1426.63 785.112C1426.5 785.447 1426.32 785.721 1426.1 785.935C1425.88 786.148 1425.61 786.305 1425.29 786.405C1424.98 786.504 1424.62 786.554 1424.23 786.554C1423.93 786.554 1423.67 786.522 1423.42 786.458C1423.18 786.387 1422.97 786.28 1422.78 786.138C1422.6 786.009 1422.43 785.849 1422.29 785.657C1422.15 785.465 1422.04 785.244 1421.94 784.995C1421.79 784.632 1421.68 784.208 1421.61 783.724C1421.55 783.232 1421.52 782.677 1421.52 782.057V779.943C1421.52 779.487 1421.54 779.063 1421.58 778.672C1421.62 778.273 1421.69 777.91 1421.79 777.582C1421.91 777.162 1422.07 776.795 1422.27 776.482C1422.48 776.162 1422.73 775.916 1423.02 775.745C1423.2 775.645 1423.38 775.571 1423.58 775.521C1423.79 775.471 1424.01 775.446 1424.25 775.446C1424.69 775.446 1425.07 775.506 1425.39 775.628C1425.71 775.741 1425.98 775.912 1426.2 776.14C1426.41 776.375 1426.56 776.667 1426.67 777.016C1426.79 777.365 1426.86 777.771 1426.89 778.234H1429.9C1429.83 777.422 1429.66 776.692 1429.38 776.044C1429.11 775.396 1428.74 774.848 1428.26 774.399C1427.79 773.951 1427.22 773.605 1426.54 773.363C1425.87 773.121 1425.11 773 1424.25 773C1423.67 773 1423.12 773.075 1422.61 773.224C1422.11 773.367 1421.65 773.573 1421.23 773.844C1420.75 774.164 1420.33 774.556 1419.96 775.019C1419.58 775.482 1419.28 776.008 1419.05 776.599C1418.85 777.084 1418.7 777.611 1418.6 778.18C1418.5 778.743 1418.45 779.337 1418.45 779.964V782.057C1418.45 782.727 1418.5 783.36 1418.61 783.959C1418.72 784.557 1418.89 785.105 1419.09 785.603C1419.31 786.102 1419.57 786.558 1419.88 786.971C1420.2 787.384 1420.55 787.736 1420.96 788.028C1421.39 788.341 1421.89 788.583 1422.43 788.754C1422.98 788.918 1423.58 789 1424.23 789C1425.05 789 1425.79 788.883 1426.47 788.648C1427.14 788.405 1427.72 788.064 1428.21 787.622C1428.7 787.181 1429.09 786.647 1429.37 786.02C1429.67 785.393 1429.84 784.688 1429.89 783.905Z" fill="white"/>
<path d="M1437.56 782.965L1440.51 788.776H1443.75V788.637L1440.38 782.218C1440.81 782.025 1441.2 781.798 1441.55 781.534C1441.9 781.271 1442.2 780.961 1442.45 780.605C1442.69 780.256 1442.88 779.861 1443.01 779.419C1443.15 778.971 1443.21 778.469 1443.21 777.913C1443.21 777.144 1443.08 776.468 1442.8 775.884C1442.54 775.3 1442.16 774.812 1441.66 774.421C1441.16 774.029 1440.56 773.733 1439.86 773.534C1439.15 773.328 1438.37 773.224 1437.5 773.224H1432.25V788.776H1435.27V782.965H1437.56ZM1435.27 780.53V775.66H1437.5C1437.92 775.66 1438.28 775.709 1438.61 775.809C1438.93 775.909 1439.2 776.051 1439.43 776.236C1439.68 776.443 1439.86 776.706 1439.99 777.027C1440.11 777.34 1440.18 777.703 1440.18 778.116C1440.18 778.458 1440.13 778.768 1440.03 779.045C1439.93 779.323 1439.79 779.562 1439.61 779.761C1439.39 780.01 1439.1 780.202 1438.74 780.338C1438.39 780.466 1437.98 780.53 1437.51 780.53H1435.27Z" fill="white"/>
<path d="M1455.13 781.961V779.59H1448.69V775.67H1456.18V773.224H1445.66V788.776H1456.22V786.351H1448.69V781.961H1455.13Z" fill="white"/>
<path d="M1470.24 775.67V773.224H1457.6V775.67H1462.37V788.776H1465.41V775.67H1470.24Z" fill="white"/>
<path d="M1480.1 784.717C1480.1 784.995 1480.04 785.251 1479.93 785.486C1479.81 785.714 1479.65 785.91 1479.43 786.073C1479.22 786.237 1478.95 786.365 1478.63 786.458C1478.33 786.551 1477.97 786.597 1477.57 786.597C1477.12 786.597 1476.7 786.547 1476.32 786.447C1475.95 786.348 1475.63 786.191 1475.36 785.977C1475.09 785.764 1474.88 785.49 1474.73 785.155C1474.58 784.82 1474.49 784.418 1474.48 783.948H1471.51C1471.51 784.753 1471.66 785.454 1471.97 786.052C1472.29 786.65 1472.71 787.17 1473.25 787.611C1473.82 788.06 1474.48 788.402 1475.24 788.637C1476.01 788.865 1476.79 788.979 1477.57 788.979C1478.37 788.979 1479.1 788.886 1479.78 788.701C1480.45 788.509 1481.03 788.227 1481.52 787.857C1482.01 787.494 1482.39 787.049 1482.66 786.522C1482.94 785.988 1483.08 785.379 1483.08 784.696C1483.08 783.905 1482.9 783.207 1482.53 782.602C1482.16 781.997 1481.67 781.466 1481.06 781.011C1480.65 780.733 1480.2 780.487 1479.71 780.274C1479.22 780.06 1478.71 779.879 1478.17 779.729C1477.67 779.594 1477.22 779.448 1476.82 779.291C1476.42 779.134 1476.08 778.96 1475.8 778.768C1475.52 778.583 1475.31 778.372 1475.16 778.138C1475.01 777.903 1474.94 777.639 1474.94 777.347C1474.94 777.069 1475 776.813 1475.1 776.578C1475.22 776.336 1475.38 776.126 1475.6 775.948C1475.81 775.777 1476.08 775.645 1476.39 775.553C1476.7 775.453 1477.06 775.403 1477.46 775.403C1477.9 775.403 1478.28 775.464 1478.6 775.585C1478.93 775.699 1479.21 775.859 1479.43 776.065C1479.65 776.279 1479.81 776.532 1479.92 776.824C1480.03 777.116 1480.09 777.436 1480.11 777.785H1483.06C1483.06 777.087 1482.92 776.446 1482.65 775.862C1482.38 775.279 1482 774.773 1481.51 774.346C1481.02 773.926 1480.44 773.598 1479.75 773.363C1479.08 773.128 1478.33 773.011 1477.52 773.011C1476.73 773.011 1475.99 773.114 1475.32 773.32C1474.65 773.52 1474.06 773.808 1473.57 774.186C1473.07 774.563 1472.68 775.019 1472.4 775.553C1472.12 776.087 1471.98 776.681 1471.98 777.336C1471.98 777.906 1472.09 778.433 1472.3 778.917C1472.51 779.401 1472.83 779.843 1473.24 780.242C1473.66 780.64 1474.19 781.007 1474.85 781.342C1475.51 781.676 1476.27 781.961 1477.14 782.196C1477.7 782.346 1478.16 782.51 1478.54 782.688C1478.92 782.858 1479.23 783.047 1479.46 783.254C1479.69 783.467 1479.85 783.695 1479.95 783.937C1480.05 784.179 1480.1 784.439 1480.1 784.717Z" fill="white"/>
<path d="M2137.63 1126.41H1232.2C1231.54 1126.41 1231 1125.86 1231 1125.2C1231 1124.54 1231.54 1124 1232.2 1124H2137.63C2138.3 1124 2138.84 1124.54 2138.84 1125.2C2138.84 1125.86 2138.3 1126.41 2137.63 1126.41Z" fill="#2E3552"/>
</svg>
