<svg width="300" height="300" viewBox="0 0 300 300" fill="none" xmlns="http://www.w3.org/2000/svg">
<rect width="300" height="300" fill="#FFF3ED"/>
<path d="M138.008 142V155.219H148.062C150.969 155.219 153.594 155.57 155.938 156.273C158.328 156.93 160.367 157.938 162.055 159.297C163.742 160.703 165.031 162.461 165.922 164.57C166.812 166.68 167.258 169.211 167.258 172.164C167.258 174.789 166.859 177.133 166.062 179.195C165.312 181.211 164.211 182.898 162.758 184.258C161.258 185.711 159.406 186.812 157.203 187.562C155.047 188.266 152.609 188.617 149.891 188.617C147.359 188.617 145.039 188.242 142.93 187.492C140.867 186.742 139.086 185.688 137.586 184.328C136.039 183.016 134.844 181.422 134 179.547C133.203 177.625 132.805 175.539 132.805 173.289H116C116 178.07 116.914 182.266 118.742 185.875C120.617 189.438 123.102 192.438 126.195 194.875C129.289 197.312 132.875 199.141 136.953 200.359C141.031 201.578 145.273 202.188 149.68 202.188C154.555 202.188 159.078 201.531 163.25 200.219C167.469 198.859 171.125 196.891 174.219 194.312C177.266 191.781 179.656 188.664 181.391 184.961C183.172 181.211 184.062 176.945 184.062 172.164C184.062 169.586 183.758 167.102 183.148 164.711C182.539 162.273 181.555 160 180.195 157.891C178.836 155.828 177.078 153.977 174.922 152.336C172.812 150.648 170.234 149.289 167.188 148.258C169.766 147.086 172.016 145.656 173.938 143.969C175.859 142.281 177.453 140.477 178.719 138.555C179.984 136.586 180.922 134.547 181.531 132.438C182.188 130.328 182.516 128.219 182.516 126.109C182.516 121.328 181.719 117.133 180.125 113.523C178.531 109.914 176.281 106.867 173.375 104.383C170.516 101.945 167.047 100.117 162.969 98.8984C158.938 97.6328 154.508 97 149.68 97C144.945 97 140.586 97.7031 136.602 99.1094C132.664 100.516 129.242 102.461 126.336 104.945C123.43 107.477 121.156 110.453 119.516 113.875C117.875 117.297 117.055 121.047 117.055 125.125H133.859C133.859 122.922 134.258 120.93 135.055 119.148C135.898 117.367 137.047 115.844 138.5 114.578C139.906 113.312 141.57 112.352 143.492 111.695C145.461 110.992 147.594 110.641 149.891 110.641C152.469 110.641 154.742 110.992 156.711 111.695C158.727 112.398 160.391 113.383 161.703 114.648C163.016 116.008 164 117.648 164.656 119.57C165.359 121.492 165.711 123.672 165.711 126.109C165.711 128.359 165.336 130.469 164.586 132.438C163.883 134.359 162.852 135.977 161.492 137.289C160.039 138.789 158.188 139.961 155.938 140.805C153.688 141.602 151.062 142 148.062 142H138.008Z" fill="black"/>
</svg>
