<svg width="132" height="23" viewBox="0 0 132 23" fill="none" xmlns="http://www.w3.org/2000/svg">
<path d="M7.8553 23C3.52378 23 0 19.476 0 15.1443C0 10.8127 3.52378 7.28867 7.8553 7.28867C12.1866 7.28867 15.7104 10.8127 15.7104 15.1443C15.7104 19.476 12.1866 23 7.8553 23ZM7.8553 11.9935C6.11785 11.9935 4.70449 13.407 4.70449 15.1443C4.70449 16.8817 6.11784 18.2952 7.8553 18.2952C9.59255 18.2952 11.0059 16.8817 11.0059 15.1443C11.0059 13.407 9.59255 11.9935 7.8553 11.9935Z" fill="#26201D"/>
<path d="M15.7104 0H11.0059V22.6654H15.7104V0Z" fill="#26201D"/>
<path d="M11.0059 7.95325V22.3354C13.772 21.1184 15.7104 18.3552 15.7104 15.1443C15.7104 11.9335 13.772 9.17021 11.0059 7.95325Z" fill="#26201D"/>
<path d="M26.8475 22.9838C22.5162 22.9838 18.9924 19.4598 18.9924 15.1281C18.9924 10.7965 22.5162 7.27246 26.8475 7.27246C31.179 7.27246 34.7028 10.7965 34.7028 15.1281C34.7028 19.4598 31.179 22.9838 26.8475 22.9838ZM26.8475 11.9773C25.1103 11.9773 23.6969 13.3908 23.6969 15.1281C23.6969 16.8655 25.1103 18.279 26.8475 18.279C28.585 18.279 29.9983 16.8655 29.9983 15.1281C29.9983 13.3908 28.585 11.9773 26.8475 11.9773Z" fill="#26201D"/>
<path d="M34.7028 15.1281H29.9983V22.6492H34.7028V15.1281Z" fill="#26201D"/>
<path d="M34.7028 15.1281H29.9983V22.3192C32.7644 21.1022 34.7028 18.339 34.7028 15.1281Z" fill="#26201D"/>
<path d="M46.0388 11.9773C46.2927 11.9773 46.5446 12.0089 46.7868 12.0709L47.9538 7.51305C47.3306 7.35349 46.6862 7.27246 46.0388 7.27246C41.7954 7.27246 38.343 10.7251 38.343 14.9688H43.0475C43.0475 13.3193 44.3895 11.9773 46.0388 11.9773Z" fill="#26201D"/>
<path d="M43.0475 7.59744H38.3431V22.6493H43.0475V7.59744Z" fill="#26201D"/>
<path d="M43.0475 14.9688V7.87778C40.2857 9.04743 38.3431 11.7855 38.3431 14.9688" fill="#26201D"/>
<path d="M55.4036 0H50.6992V22.6654H55.4036V0Z" fill="#26201D"/>
<path d="M66.033 7.61362H59.8904L50.6992 15.1395L59.8901 22.6654H66.033L56.8417 15.1395L66.033 7.61362Z" fill="#26201D"/>
<path d="M55.4036 11.2874L50.6992 15.1395L55.4036 18.9918V11.2874Z" fill="#26201D"/>
<path d="M74.0255 23C69.694 23 66.1702 19.476 66.1702 15.1443C66.1702 10.8127 69.694 7.28867 74.0255 7.28867C78.3568 7.28867 81.8806 10.8127 81.8806 15.1443C81.8806 19.476 78.3568 23 74.0255 23ZM74.0255 11.9935C72.288 11.9935 70.8747 13.407 70.8747 15.1443C70.8747 16.8817 72.288 18.2952 74.0255 18.2952C75.7627 18.2952 77.1761 16.8817 77.1761 15.1443C77.1761 13.407 75.7627 11.9935 74.0255 11.9935Z" fill="#26201D"/>
<path d="M81.8806 0H77.1761V22.6654H81.8806V0Z" fill="#26201D"/>
<path d="M77.1761 7.95325V22.3354C79.9422 21.1184 81.8806 18.3552 81.8806 15.1443C81.8806 11.9335 79.9422 9.17021 77.1761 7.95325Z" fill="#26201D"/>
<path d="M93.0175 22.9838C88.6864 22.9838 85.1626 19.4598 85.1626 15.1281C85.1626 10.7965 88.6864 7.27246 93.0175 7.27246C97.349 7.27246 100.873 10.7965 100.873 15.1281C100.873 19.4598 97.349 22.9838 93.0175 22.9838ZM93.0175 11.9773C91.2804 11.9773 89.8671 13.3908 89.8671 15.1281C89.8671 16.8655 91.2804 18.279 93.0175 18.279C94.7549 18.279 96.1683 16.8655 96.1683 15.1281C96.1683 13.3908 94.7549 11.9773 93.0175 11.9773Z" fill="#26201D"/>
<path d="M111.266 22.9838C106.935 22.9838 103.411 19.4598 103.411 15.1281C103.411 10.7965 106.935 7.27246 111.266 7.27246C115.597 7.27246 119.121 10.7965 119.121 15.1281C119.121 19.4598 115.597 22.9838 111.266 22.9838ZM111.266 11.9773C109.529 11.9773 108.115 13.3908 108.115 15.1281C108.115 16.8655 109.529 18.279 111.266 18.279C113.003 18.279 114.416 16.8655 114.416 15.1281C114.416 13.3908 113.003 11.9773 111.266 11.9773Z" fill="#26201D"/>
<path d="M130.085 11.9773C130.339 11.9773 130.591 12.0089 130.833 12.0709L132 7.51305C131.377 7.35349 130.732 7.27246 130.085 7.27246C125.842 7.27246 122.389 10.7251 122.389 14.9688H127.094C127.094 13.3193 128.436 11.9773 130.085 11.9773Z" fill="#26201D"/>
<path d="M127.094 7.59744H122.389V22.6493H127.094V7.59744Z" fill="#26201D"/>
<path d="M127.094 14.9688V7.87778C124.332 9.04743 122.389 11.7855 122.389 14.9688" fill="#26201D"/>
</svg>
