<svg width="28" height="28" viewBox="0 0 28 28" fill="none" xmlns="http://www.w3.org/2000/svg">
<path fill-rule="evenodd" clip-rule="evenodd" d="M0 0H28V28H0V0ZM8.36533 20C5.95822 20 4 18.0082 4 15.5598C4 13.1115 5.95822 11.1197 8.36533 11.1197C8.98764 11.1197 9.57993 11.2528 10.1161 11.4926V7H12.7305L12.7305 15.5431V15.5598V15.5765L12.7305 19.8109H10.1161V19.6271C9.57993 19.8669 8.98761 20 8.36533 20ZM8.36533 13.7789C9.33072 13.7789 10.1161 14.5778 10.1161 15.5598C10.1161 16.5418 9.33072 17.3408 8.36533 17.3408C7.39978 17.3408 6.61435 16.5418 6.61435 15.5598C6.61435 14.5778 7.39978 13.7789 8.36533 13.7789ZM14.2695 15.5598C14.2695 18.0082 16.2277 20 18.6348 20C19.2571 20 19.8494 19.8668 20.3857 19.6271V19.8109H23V15.5598V7H20.3857V11.4926C19.8494 11.2529 19.2571 11.1197 18.6348 11.1197C16.2277 11.1197 14.2695 13.1115 14.2695 15.5598ZM20.3857 15.5598C20.3857 14.5778 19.6002 13.7789 18.6348 13.7789C17.6693 13.7789 16.8839 14.5778 16.8839 15.5598C16.8839 16.5418 17.6693 17.3408 18.6348 17.3408C19.6002 17.3408 20.3857 16.5418 20.3857 15.5598Z" fill="#26201D"/>
</svg>
